<svg width="156" height="156" viewBox="0 0 156 156" fill="none" xmlns="http://www.w3.org/2000/svg">
<path d="M75.1532 41.7243C76.7099 40.8165 78.6346 40.8165 80.1913 41.7243L107.409 57.5986C108.945 58.4946 109.89 60.1392 109.89 61.9176V93.7542C109.89 95.5327 108.945 97.1773 107.409 98.0733L80.1913 113.948C78.6346 114.855 76.7099 114.855 75.1532 113.948L47.9357 98.0733C46.3994 97.1773 45.4547 95.5327 45.4547 93.7542V61.9176C45.4547 60.1392 46.3994 58.4946 47.9357 57.5986L75.1532 41.7243Z" fill="#67A438"/>
<path d="M3.48817 79.2384C2.158 78.468 2.158 76.5474 3.48817 75.777L32.6185 58.9054C33.9518 58.1332 35.6208 59.0953 35.6208 60.6361V94.3793C35.6208 95.9201 33.9518 96.8822 32.6185 96.11L3.48817 79.2384Z" fill="#C0DA9B"/>
<path d="M152.512 75.777C153.842 76.5474 153.842 78.468 152.512 79.2384L123.382 96.11C122.048 96.8822 120.379 95.9201 120.379 94.3793V60.6361C120.379 59.0953 122.048 58.1332 123.382 58.9054L152.512 75.777Z" fill="#2B4518"/>
<path d="M38.9668 14.1443C38.9668 12.6017 40.6339 11.6362 41.9656 12.4075L71.0959 29.2791C72.4261 30.0495 72.4241 31.9753 71.0924 32.7467L41.9621 49.6183C40.6303 50.3896 38.9668 49.4284 38.9668 47.8876L38.9668 14.1443Z" fill="#004524"/>
<path d="M38.9668 14.1443C38.9668 12.6017 40.6339 11.6362 41.9656 12.4075L71.0959 29.2791C72.4261 30.0495 72.4241 31.9753 71.0924 32.7467L41.9621 49.6183C40.6303 50.3896 38.9668 49.4284 38.9668 47.8876L38.9668 14.1443Z" fill="#395A1F"/>
<path d="M116.467 141.856C116.467 143.398 114.8 144.364 113.468 143.593L84.3377 126.721C83.0075 125.951 83.0095 124.025 84.3412 123.253L113.472 106.382C114.803 105.61 116.467 106.572 116.467 108.112L116.467 141.856Z" fill="#B0D182"/>
<path d="M42.5321 143.592C41.2004 144.364 39.5333 143.398 39.5333 141.856L39.5333 108.112C39.5333 106.572 41.1968 105.61 42.5286 106.382L71.6589 123.253C72.9907 124.025 72.9926 125.95 71.6625 126.721L42.5321 143.592Z" fill="#497428"/>
<path d="M114.035 12.4074C115.366 11.6361 117.033 12.6016 117.033 14.1443L117.033 47.8875C117.033 49.4283 115.37 50.3895 114.038 49.6182L84.9077 32.7466C83.576 31.9753 83.574 30.0495 84.9042 29.2791L114.035 12.4074Z" fill="#A0BE76"/>
</svg>
